<?xml version="1.0" encoding="UTF-8" standalone="no"?>
<!DOCTYPE svg PUBLIC "-//W3C//DTD SVG 20010904//EN"
              "http://www.w3.org/TR/2001/REC-SVG-20010904/DTD/svg10.dtd">

<svg xmlns="http://www.w3.org/2000/svg"
     width="150.04mm" height="337.655mm"
     viewBox="0 0 567 1276">
  <path id="Unnamed"
        fill="none" stroke="black" stroke-width="1"
        d="M 95.48,619.98
           C 95.48,617.37 97.33,602.62 97.33,600.88
             97.33,599.15 100.01,590.03 100.01,589.16
             100.01,588.29 104.43,580.38 104.87,579.94
             105.30,579.51 107.11,574.62 107.55,573.75
             107.98,572.88 111.40,568.05 111.40,568.05
             111.40,568.05 115.58,563.98 115.58,563.98
             115.58,563.98 124.27,497.06 124.27,497.06
             124.27,497.06 134.69,437.97 134.69,437.97
             134.69,437.97 139.78,404.08 140.21,403.21
             140.65,402.34 146.08,376.44 146.08,375.57
             146.08,374.70 150.77,358.46 151.20,354.98
             151.64,351.51 158.59,331.52 158.59,331.52
             158.59,331.52 169.89,297.20 169.89,297.20
             169.89,297.20 181.19,267.65 181.19,267.65
             181.19,267.65 189.44,247.23 189.44,247.23
             189.44,247.23 201.17,221.16 201.17,221.16
             201.17,221.16 208.99,206.39 209.43,205.52
             209.86,204.65 218.55,186.83 218.55,186.83
             218.55,186.83 232.46,161.63 232.46,161.63
             232.46,161.63 245.49,139.91 245.93,139.47
             246.36,139.04 256.35,122.96 256.35,122.96
             256.35,122.96 267.65,104.71 267.65,104.71
             267.65,104.71 278.95,85.16 278.95,85.16
             278.95,85.16 295.02,65.17 295.02,65.17
             295.02,65.17 300.24,57.79 300.24,57.79
             300.24,57.79 309.80,53.44 309.80,53.44
             309.80,53.44 394.52,53.01 394.52,53.01
             394.52,53.01 390.34,80.94 390.34,80.94
             390.34,80.94 372.93,81.96 372.93,81.96
             372.93,81.96 350.39,86.06 350.39,86.06
             350.39,86.06 329.90,86.06 329.90,86.06
             329.90,86.06 313.50,111.67 313.50,111.67
             313.50,111.67 302.23,123.97 299.16,129.09
             296.09,134.21 283.79,151.63 283.79,151.63
             283.79,151.63 281.74,157.78 276.62,163.92
             271.50,170.07 264.33,186.46 261.25,188.51
             258.18,190.56 248.96,212.08 248.96,212.08
             248.96,212.08 242.81,221.30 238.71,228.47
             234.62,235.64 228.47,245.88 228.47,245.88
             228.47,245.88 217.89,268.28 217.89,268.28
             217.89,268.28 207.89,301.20 204.20,312.59
             199.35,322.47 196.71,343.21 194.66,345.26
             192.61,347.31 192.61,356.53 190.56,361.66
             188.51,366.78 186.46,383.17 184.41,386.24
             182.36,389.32 182.36,404.69 180.32,410.83
             178.27,416.98 175.19,438.49 175.19,440.54
             175.19,442.59 173.14,464.11 172.12,470.25
             171.09,476.40 169.05,491.77 169.05,498.94
             169.05,506.11 165.98,529.22 165.98,529.22
             165.98,529.22 164.00,553.48 164.00,553.48
             164.00,553.48 157.63,563.36 157.63,563.36
             157.63,563.36 149.09,572.91 149.09,572.91
             149.09,572.91 143.69,578.57 142.39,579.44
             141.09,580.31 139.04,581.36 136.43,585.27
             133.82,589.18 130.35,594.83 129.91,597.00
             129.48,599.17 128.61,604.82 128.18,606.99
             127.74,609.16 126.87,618.72 126.87,622.20
             126.87,625.68 129.46,637.54 130.33,638.41
             131.20,639.28 133.34,643.27 135.69,646.78
             139.54,651.31 148.25,660.09 148.25,660.52
             148.25,660.95 153.18,667.12 153.61,667.56
             154.05,667.99 155.12,679.55 155.12,679.55
             155.12,679.55 155.12,694.76 154.68,699.10
             154.25,703.45 155.12,716.92 154.25,726.48
             153.38,736.04 153.81,745.16 152.94,753.85
             152.07,762.54 152.21,776.29 151.77,782.81
             151.34,789.33 153.45,807.44 153.45,811.79
             153.45,816.13 153.95,824.11 153.95,833.23
             153.95,842.36 156.70,863.09 157.13,866.57
             157.57,870.04 158.27,877.34 159.14,885.16
             160.01,892.98 161.79,898.14 162.66,905.10
             163.53,912.05 167.18,932.77 167.18,934.08
             167.18,935.38 180.32,975.88 180.32,976.75
             180.32,977.62 187.70,1004.56 188.14,1007.16
             188.57,1009.77 192.48,1021.50 192.92,1027.58
             193.35,1033.67 210.73,1067.12 210.73,1067.12
             210.73,1067.12 215.08,1077.12 215.08,1078.85
             215.08,1080.59 218.99,1092.32 220.72,1095.37
             222.46,1098.41 228.11,1104.49 230.28,1108.84
             232.46,1113.18 238.54,1124.04 239.84,1127.52
             241.15,1130.99 245.06,1137.08 246.79,1142.73
             248.53,1148.37 251.14,1151.85 252.88,1155.76
             254.61,1159.67 260.26,1166.19 262.44,1169.66
             264.61,1173.14 262.87,1172.71 267.22,1176.62
             271.56,1180.53 278.08,1183.57 280.68,1184.44
             283.29,1185.31 285.90,1186.18 291.55,1187.91
             297.20,1189.65 308.49,1192.69 311.10,1193.13
             313.71,1193.56 321.96,1193.13 324.57,1194.43
             327.18,1195.73 334.56,1196.17 334.56,1196.17
             334.56,1196.17 335.43,1227.89 335.43,1228.32
             335.43,1228.76 327.18,1227.45 326.74,1227.02
             326.31,1226.58 246.79,1217.89 246.79,1217.89
             246.79,1217.89 238.10,1207.03 237.24,1204.86
             236.37,1202.69 233.32,1195.30 230.72,1190.52
             228.11,1185.74 226.81,1179.66 222.46,1173.14
             218.12,1166.62 213.34,1161.41 211.60,1156.63
             209.86,1151.85 206.82,1144.03 203.78,1138.82
             200.74,1133.60 195.52,1125.78 195.52,1125.78
             195.52,1125.78 174.67,1076.25 174.67,1076.25
             174.67,1076.25 163.81,1049.74 161.63,1044.53
             159.46,1039.32 149.90,1007.16 149.47,1006.29
             149.03,1005.43 138.60,972.84 137.74,969.36
             136.87,965.89 131.22,935.47 130.78,932.00
             130.35,928.52 122.53,896.37 122.53,896.37
             122.53,896.37 115.58,849.01 115.58,849.01
             115.58,849.01 114.27,819.90 114.27,819.46
             114.27,819.03 111.67,775.14 111.67,775.14
             111.67,775.14 109.93,740.38 109.93,739.95
             109.93,739.51 110.36,684.33 110.36,684.33
             110.36,684.33 109.93,667.39 109.93,667.39
             110.79,665.07 104.03,659.68 104.03,659.68
             101.52,653.99 99.34,648.29 99.34,648.29
             99.34,648.29 97.69,644.36 96.82,637.40
             95.96,630.45 95.48,622.59 95.48,619.98 Z
           M 141.72,645.28" />
</svg>
