<?xml version="1.0" encoding="UTF-8" standalone="no"?>
<!DOCTYPE svg PUBLIC "-//W3C//DTD SVG 20010904//EN"
              "http://www.w3.org/TR/2001/REC-SVG-20010904/DTD/svg10.dtd">

<svg xmlns="http://www.w3.org/2000/svg"
     width="130.193mm" height="333.422mm"
     viewBox="0 0 492 1260">
  <path id="Unnamed"
        fill="none" stroke="black" stroke-width="1"
        d="M 327.56,451.67
           C 327.56,451.67 324.82,476.45 324.82,476.45
             324.82,476.45 320.51,498.57 320.51,498.57
             320.51,498.57 315.92,509.09 315.92,509.09
             315.92,509.09 309.99,518.26 309.99,518.26
             309.99,518.26 300.81,526.63 300.81,526.63
             300.81,526.63 286.25,536.07 286.25,536.07
             286.25,536.07 268.98,546.05 268.98,546.05
             268.98,546.05 250.36,555.76 250.36,555.76
             250.36,555.76 233.91,562.24 233.91,562.24
             233.91,562.24 225.54,565.48 225.54,565.48
             225.54,565.48 213.13,568.17 213.13,568.17
             213.13,568.17 207.74,569.52 207.74,569.52
             207.74,569.52 204.77,567.63 204.77,567.63
             204.77,567.63 200.72,564.67 200.72,564.67
             200.72,564.67 195.04,564.67 195.04,564.67
             191.39,564.01 186.07,569.52 186.07,569.52
             186.07,569.52 183.08,575.66 183.08,575.66
             183.08,575.66 181.75,584.04 181.75,584.04
             181.75,584.04 181.30,592.99 181.30,592.99
             181.30,592.99 181.03,600.55 181.03,600.82
             181.03,601.09 181.59,610.36 181.59,610.36
             181.59,610.36 183.19,616.47 183.19,616.47
             183.19,616.47 186.02,624.18 186.02,624.18
             186.02,624.18 191.82,628.34 191.82,628.34
             191.82,628.34 198.35,627.49 198.35,627.49
             198.35,627.49 202.56,624.87 202.83,624.87
             203.10,624.87 207.90,622.05 207.90,622.05
             207.90,622.05 226.08,625.91 226.08,625.91
             226.08,625.91 241.73,631.57 241.73,631.57
             241.73,631.57 255.22,637.51 255.22,637.51
             255.22,637.51 269.71,643.54 269.71,643.54
             269.71,643.54 284.79,652.07 284.79,652.07
             284.79,652.07 291.87,657.48 291.87,657.48
             291.87,657.48 302.37,664.24 302.37,664.24
             302.37,664.24 309.24,670.58 309.24,670.58
             309.24,670.58 314.33,677.87 314.33,677.87
             314.33,677.87 319.22,686.71 319.22,686.71
             319.22,686.71 323.28,698.77 323.28,698.77
             323.28,698.77 326.50,713.13 326.50,713.13
             326.50,713.13 328.06,723.94 328.06,723.94
             328.06,723.94 332.33,754.67 332.33,754.67
             332.33,754.67 335.03,782.63 335.03,782.63
             335.03,782.63 337.97,814.76 337.97,814.76
             337.97,814.76 338.95,844.93 338.95,844.93
             338.95,844.93 339.44,876.32 339.44,876.32
             339.44,876.32 336.99,891.77 336.99,891.77
             336.99,891.77 121.40,903.05 121.40,903.05
             121.40,903.05 118.71,879.75 118.71,879.75
             118.71,879.75 115.52,833.89 115.52,833.89
             115.52,833.89 114.78,795.63 114.78,795.63
             114.78,795.63 116.01,758.10 116.01,758.10
             116.01,758.10 116.93,733.39 116.93,733.39
             116.93,733.39 120.78,702.40 120.78,702.40
             120.78,702.40 125.14,672.92 125.14,672.92
             125.14,672.92 127.82,652.48 127.82,652.48
             127.82,652.48 129.83,636.57 129.83,636.57
             129.83,636.57 130.66,614.12 130.66,614.12
             130.66,614.12 130.66,593.18 130.66,593.18
             130.66,593.18 130.66,571.07 130.66,571.07
             130.66,571.07 130.16,553.81 130.16,553.81
             130.16,553.81 127.31,538.07 127.31,538.07
             127.31,538.07 124.30,514.45 124.30,514.45
             124.30,514.45 121.45,492.17 121.45,492.17
             121.45,492.17 118.60,468.55 118.60,468.55
             118.60,468.55 117.43,449.78 117.43,449.78
             117.43,449.78 116.09,422.48 116.09,422.48
             116.09,422.48 115.75,387.80 115.75,387.80
             115.75,387.80 116.09,364.35 116.09,364.35
             116.09,364.35 117.76,335.37 117.76,335.20
             117.76,335.03 119.27,312.25 119.27,312.25
             119.27,312.25 121.79,288.13 121.79,288.13
             121.79,288.13 125.14,265.68 125.14,265.68
             125.14,265.68 127.48,250.94 127.48,250.94
             127.48,250.94 330.88,287.83 330.88,287.83
             330.88,287.83 333.79,313.16 333.79,313.16
             333.79,313.16 334.48,337.53 334.48,337.53
             334.48,337.53 334.62,357.88 334.62,357.88
             334.62,357.88 333.79,381.14 333.79,381.97
             333.79,382.80 332.54,404.67 332.54,404.67
             332.54,404.67 330.33,429.45 330.33,429.45
             330.33,429.45 327.56,451.67 327.56,451.67 Z" />
</svg>
